<?xml version="1.0" encoding="utf-8"?>
<!-- Generator: Adobe Illustrator 21.0.0, SVG Export Plug-In . SVG Version: 6.00 Build 0)  -->
<svg version="1.1" id="图层_1" xmlns="http://www.w3.org/2000/svg" xmlns:xlink="http://www.w3.org/1999/xlink" x="0px" y="0px"
	 viewBox="0 0 128 128" style="enable-background:new 0 0 128 128;" xml:space="preserve">
<style type="text/css">
	.st0{fill:#979797;}
</style>
<title>jiami</title>
<desc>Created with Sketch.</desc>
<g id="Page-1">
	<g id="概览展开" transform="translate(-191.000000, -179.000000)">
		<g id="文件下拉-copy" transform="translate(182.000000, 161.000000)">
			<g id="Group-10" transform="translate(9.000000, 18.000000)">
				<path id="jiami" class="st0" d="M22.8,53.5v57.6h82.3V53.5H22.8z M26.9,45.2C26.9,24.6,43.4,8.2,64,8.2s37.1,16.5,37.1,37.1
					h12.4v74.1H14.6V45.2H26.9z M35.2,45.2h57.6c0-15.6-13.2-28.8-28.8-28.8S35.2,29.6,35.2,45.2z M64,86.4
					c-6.6,0-12.4-5.8-12.4-12.4c0-6.6,5.8-12.4,12.4-12.4S76.4,67.5,76.4,74C76.4,80.6,70.6,86.4,64,86.4z M68.1,98.7h-8.2V74.9h8.2
					V98.7z"/>
			</g>
		</g>
	</g>
</g>
</svg>
